<svg width="44" height="44" viewBox="0 0 44 44" fill="none" xmlns="http://www.w3.org/2000/svg">
<path d="M17.7142 32.5C18.5181 32.5 19.1785 31.8536 19.1785 31.0455C19.1785 30.2374 18.5181 29.5909 17.7142 29.5909C16.9103 29.5909 16.25 30.2374 16.25 31.0455C16.25 31.8536 16.9103 32.5 17.7142 32.5Z" stroke="#949494" stroke-linecap="round" stroke-linejoin="round"/>
<path d="M31.2133 32.5C32.0172 32.5 32.6775 31.8536 32.6775 31.0455C32.6775 30.2374 32.0172 29.5909 31.2133 29.5909C30.4094 29.5909 29.749 30.2374 29.749 31.0455C29.749 31.8536 30.4094 32.5 31.2133 32.5Z" stroke="#949494" stroke-linecap="round" stroke-linejoin="round"/>
<path d="M10 11H13.8569L16.7496 27.2273H32.1773" stroke="#949494" stroke-linecap="round" stroke-linejoin="round"/>
<path d="M16.7497 23.4091H31.7821C31.8936 23.4092 32.0017 23.371 32.0879 23.3011C32.1742 23.2311 32.2333 23.1337 32.2552 23.0255L33.9908 14.4346C34.0048 14.3653 34.0031 14.2938 33.9858 14.2253C33.9685 14.1567 33.9361 14.0929 33.8908 14.0382C33.8455 13.9836 33.7886 13.9396 33.7241 13.9094C33.6596 13.8792 33.5891 13.8636 33.5177 13.8636H14.8213" stroke="#949494" stroke-linecap="round" stroke-linejoin="round"/>
</svg>
