<svg width="44" height="44" viewBox="0 0 44 44" fill="none" xmlns="http://www.w3.org/2000/svg">
<path d="M17.7142 32.75C18.6538 32.75 19.4285 31.994 19.4285 31.0455C19.4285 30.097 18.6538 29.3409 17.7142 29.3409C16.7746 29.3409 16 30.097 16 31.0455C16 31.994 16.7746 32.75 17.7142 32.75Z" stroke="#FEFEFE" stroke-width="1.5" stroke-linecap="round" stroke-linejoin="round"/>
<path d="M31.2133 32.75C32.1528 32.75 32.9275 31.994 32.9275 31.0455C32.9275 30.097 32.1528 29.3409 31.2133 29.3409C30.2737 29.3409 29.499 30.097 29.499 31.0455C29.499 31.994 30.2737 32.75 31.2133 32.75Z" stroke="#FEFEFE" stroke-width="1.5" stroke-linecap="round" stroke-linejoin="round"/>
<path d="M10 11H13.8569L16.7496 27.2273H32.1773" stroke="#FEFEFE" stroke-width="1.5" stroke-linecap="round" stroke-linejoin="round"/>
<path d="M16.7497 23.4091H31.7821C31.8936 23.4092 32.0017 23.371 32.0879 23.3011C32.1742 23.2311 32.2333 23.1337 32.2552 23.0255L33.9908 14.4346C34.0048 14.3653 34.0031 14.2938 33.9858 14.2253C33.9685 14.1567 33.9361 14.0929 33.8908 14.0382C33.8455 13.9836 33.7886 13.9396 33.7241 13.9094C33.6596 13.8792 33.5891 13.8636 33.5177 13.8636H14.8213" stroke="#FEFEFE" stroke-width="1.5" stroke-linecap="round" stroke-linejoin="round"/>
</svg>
