<svg width="44" height="44" viewBox="0 0 44 44" fill="none" xmlns="http://www.w3.org/2000/svg">
<path d="M18.0007 29V33.5965C17.9767 34.9761 18.5403 36.0109 20 35.9999C21.4597 36.0109 22.0233 34.9761 21.9993 33.5965V29" stroke="#141414" stroke-miterlimit="10" stroke-linecap="round"/>
<path d="M22.0007 29V33.5965C21.9767 34.9761 22.5403 36.0109 24 35.9999C25.4597 36.0109 26.0233 34.9761 25.9993 33.5965V29" stroke="#141414" stroke-miterlimit="10" stroke-linecap="round"/>
<path d="M17.9 26.829C17.9 26.829 17.3688 27.6183 17.0731 27.805C16.9111 27.9074 16.733 27.971 16.5496 27.9921C16.3661 28.0132 16.1809 27.9914 16.0047 27.9279C15.8274 27.8692 15.6619 27.7697 15.5181 27.6354C15.3742 27.5011 15.2549 27.3347 15.167 27.1458C15.0792 26.957 15.0247 26.7497 15.0066 26.5359C14.9886 26.3222 15.0074 26.1064 15.062 25.9013L16.7922 20.1774C16.7922 20.1774 17.2839 18.9962 17.7357 18.6038C18.1876 18.2115 18.7362 17.9997 19.2997 18H24.7009C25.2645 17.9999 25.813 18.212 26.2648 18.6046C26.7165 18.9972 27.2078 20.1787 27.2078 20.1787L28.938 25.9026C28.9926 26.1078 29.0114 26.3235 28.9934 26.5373C28.9753 26.751 28.9208 26.9584 28.833 27.1472C28.7451 27.336 28.6258 27.5025 28.4819 27.6368C28.3381 27.7711 28.1726 27.8705 27.9953 27.9292C27.8193 27.9921 27.6343 28.0134 27.4512 27.9919C27.268 27.9704 27.0904 27.9065 26.9287 27.8041C26.5478 27.5627 26.3076 27.1399 26 26.829" stroke="#141414" stroke-miterlimit="10" stroke-linecap="round"/>
<path d="M22 16C23.6569 16 25 14.6569 25 13C25 11.3431 23.6569 10 22 10C20.3431 10 19 11.3431 19 13C19 14.6569 20.3431 16 22 16Z" stroke="#141414" stroke-miterlimit="10" stroke-linecap="round"/>
<path d="M18 23V29H26V23" stroke="#141414" stroke-linecap="round" stroke-linejoin="round"/>
</svg>
