<svg width="45" height="44" viewBox="0 0 45 44" fill="none" xmlns="http://www.w3.org/2000/svg">
<path d="M18.3749 17.875V40.5625C18.3718 40.8342 18.423 41.1038 18.5256 41.3554C18.6281 41.6071 18.7799 41.8357 18.9721 42.0278C19.1642 42.22 19.3928 42.3718 19.6444 42.4743C19.8961 42.5769 20.1657 42.6281 20.4374 42.625V42.625C20.7091 42.6281 20.9787 42.5769 21.2303 42.4743C21.482 42.3718 21.7106 42.22 21.9027 42.0278C22.0949 41.8357 22.2467 41.6071 22.3492 41.3554C22.4518 41.1038 22.503 40.8342 22.4999 40.5625" stroke="#616161" stroke-miterlimit="10" stroke-linecap="round"/>
<path d="M22.4999 28.875V40.5625C22.4968 40.8342 22.548 41.1038 22.6506 41.3554C22.7531 41.6071 22.9049 41.8357 23.0971 42.0278C23.2892 42.22 23.5178 42.3718 23.7694 42.4743C24.0211 42.5769 24.2907 42.6281 24.5624 42.625C24.8341 42.6281 25.1037 42.5769 25.3553 42.4743C25.607 42.3718 25.8356 42.22 26.0277 42.0278C26.2199 41.8357 26.3717 41.6071 26.4742 41.3554C26.5768 41.1038 26.628 40.8342 26.6249 40.5625V17.875" stroke="#616161" stroke-miterlimit="10" stroke-linecap="round"/>
<path d="M18.3749 16.5V24.0625C18.3781 24.3342 18.327 24.6039 18.2245 24.8556C18.122 25.1073 17.9702 25.3359 17.778 25.5281C17.5858 25.7203 17.3572 25.8721 17.1055 25.9746C16.8538 26.0771 16.5841 26.1282 16.3124 26.125V26.125C16.0407 26.1282 15.771 26.0771 15.5193 25.9746C15.2676 25.8721 15.039 25.7203 14.8468 25.5281C14.6546 25.3359 14.5028 25.1073 14.4003 24.8556C14.2978 24.6039 14.2467 24.3342 14.2499 24.0625V16.5C14.2499 15.406 14.6845 14.3568 15.4581 13.5832C16.2317 12.8096 17.2809 12.375 18.3749 12.375H26.6249C27.7189 12.375 28.7681 12.8096 29.5417 13.5832C30.3153 14.3568 30.7499 15.406 30.7499 16.5V24.0625C30.7531 24.3342 30.702 24.6039 30.5995 24.8556C30.497 25.1073 30.3452 25.3359 30.153 25.5281C29.9608 25.7203 29.7322 25.8721 29.4805 25.9746C29.2288 26.0771 28.9591 26.1282 28.6874 26.125V26.125C28.4157 26.1282 28.146 26.0771 27.8943 25.9746C27.6426 25.8721 27.414 25.7203 27.2218 25.5281C27.0296 25.3359 26.8778 25.1073 26.7753 24.8556C26.6728 24.6039 26.6217 24.3342 26.6249 24.0625V16.5" stroke="#616161" stroke-miterlimit="10" stroke-linecap="round"/>
<path d="M22.5 8.25C24.3985 8.25 25.9375 6.71098 25.9375 4.8125C25.9375 2.91402 24.3985 1.375 22.5 1.375C20.6015 1.375 19.0625 2.91402 19.0625 4.8125C19.0625 6.71098 20.6015 8.25 22.5 8.25Z" stroke="#616161" stroke-miterlimit="10" stroke-linecap="round"/>
</svg>
