<svg width="12" height="12" viewBox="0 0 12 12" fill="none" xmlns="http://www.w3.org/2000/svg">
<g clip-path="url(#clip0_1496_11390)">
<path fill-rule="evenodd" clip-rule="evenodd" d="M1.62524 2C1.59209 2 1.5603 2.01317 1.53686 2.03661C1.51341 2.06005 1.50024 2.09185 1.50024 2.125V8.375C1.50024 8.444 1.55624 8.5 1.62524 8.5H2.87524C2.9747 8.5 3.07008 8.53951 3.14041 8.60983C3.21074 8.68016 3.25024 8.77554 3.25024 8.875V10.47L5.11024 8.61C5.1805 8.53965 5.27582 8.50009 5.37524 8.5H10.3752C10.4084 8.5 10.4402 8.48683 10.4636 8.46339C10.4871 8.43995 10.5002 8.40815 10.5002 8.375V2.125C10.5002 2.09185 10.4871 2.06005 10.4636 2.03661C10.4402 2.01317 10.4084 2 10.3752 2H1.62524ZM0.750244 2.125C0.750244 1.642 1.14224 1.25 1.62524 1.25H10.3752C10.8582 1.25 11.2502 1.642 11.2502 2.125V8.375C11.2502 8.60706 11.1581 8.82962 10.994 8.99372C10.8299 9.15781 10.6073 9.25 10.3752 9.25H5.53024L3.74374 11.0365C3.64186 11.1383 3.51208 11.2077 3.3708 11.2358C3.22952 11.2639 3.08308 11.2494 2.94999 11.1943C2.81691 11.1392 2.70315 11.0459 2.6231 10.9261C2.54305 10.8063 2.50029 10.6655 2.50024 10.5215V9.25H1.62524C1.39318 9.25 1.17062 9.15781 1.00653 8.99372C0.842431 8.82962 0.750244 8.60706 0.750244 8.375V2.125Z" fill="#7A7A7A"/>
</g>
<defs>
<clipPath id="clip0_1496_11390">
<rect width="12" height="12" fill="white" transform="translate(0.000244141)"/>
</clipPath>
</defs>
</svg>
