<svg width="12" height="12" viewBox="0 0 12 12" fill="none" xmlns="http://www.w3.org/2000/svg">
<path d="M6.84224 4.68832L6.95657 4.96758L7.25699 4.99604L9.43465 5.20237L7.7722 6.72346L7.56042 6.91723L7.62144 7.19773L8.10478 9.41942L6.26417 8.27109L6.00007 8.10632L5.73594 8.27105L3.89494 9.4192L4.37823 7.19773L4.43925 6.91727L4.22751 6.7235L2.56532 5.20235L4.74304 4.99604L5.04344 4.96758L5.15779 4.68835L6.00009 2.63147L6.84224 4.68832ZM2.45207 5.15744L2.42828 5.15002L2.45207 5.15744Z" stroke="#F07585" stroke-width="0.998073"/>
<path d="M5.50098 3.85028V8.41758L3.89494 9.4192L4.37823 7.19773L4.43925 6.91727L4.22751 6.7235L2.56532 5.20235L4.74304 4.99604L5.04344 4.96758L5.15779 4.68835L5.50098 3.85028Z" fill="#F07585" stroke="#F07585" stroke-width="0.998073"/>
</svg>
