<svg width="12" height="12" viewBox="0 0 12 12" fill="none" xmlns="http://www.w3.org/2000/svg">
<path d="M9.9791 5.02309C9.92674 4.85405 9.78306 4.73399 9.61307 4.71801L7.30406 4.49923L6.39102 2.26922C6.3237 2.10579 6.17037 2 6.00002 2C5.82967 2 5.67634 2.10579 5.60902 2.2696L4.69598 4.49923L2.3866 4.71801C2.21692 4.73438 2.07361 4.85405 2.02093 5.02309C1.96826 5.19212 2.01691 5.37753 2.14527 5.4944L3.8906 7.09164L3.37594 9.45731C3.33828 9.63125 3.40298 9.81105 3.54129 9.91538C3.61563 9.97142 3.70261 9.99996 3.79032 9.99996C3.86594 9.99996 3.94096 9.97868 4.00828 9.93665L6.00002 8.69448L7.99103 9.93665C8.13672 10.0281 8.32038 10.0198 8.45838 9.91538C8.59675 9.81073 8.66139 9.63087 8.62373 9.45731L8.10907 7.09164L9.85441 5.49472C9.98277 5.37753 10.0318 5.19244 9.9791 5.02309Z" fill="#F07585"/>
</svg>
