<svg width="45" height="44" viewBox="0 0 45 44" fill="none" xmlns="http://www.w3.org/2000/svg">
<path d="M18.3751 31.625V40.5625C18.372 40.8342 18.4232 41.1038 18.5258 41.3554C18.6283 41.6071 18.7802 41.8357 18.9723 42.0278C19.1644 42.22 19.393 42.3718 19.6447 42.4743C19.8963 42.5769 20.1659 42.6281 20.4376 42.625V42.625C20.7093 42.6281 20.9789 42.5769 21.2306 42.4743C21.4822 42.3718 21.7108 42.22 21.903 42.0278C22.0951 41.8357 22.2469 41.6071 22.3495 41.3554C22.452 41.1038 22.5032 40.8342 22.5001 40.5625" stroke="#616161" stroke-miterlimit="10" stroke-linecap="round"/>
<path d="M22.5001 31.625V40.5625C22.497 40.8342 22.5482 41.1038 22.6508 41.3554C22.7533 41.6071 22.9052 41.8357 23.0973 42.0278C23.2894 42.22 23.518 42.3718 23.7697 42.4743C24.0213 42.5769 24.2909 42.6281 24.5626 42.625C24.8343 42.6281 25.1039 42.5769 25.3556 42.4743C25.6072 42.3718 25.8358 42.22 26.028 42.0278C26.2201 41.8357 26.3719 41.6071 26.4745 41.3554C26.577 41.1038 26.6282 40.8342 26.6251 40.5625V31.625" stroke="#616161" stroke-miterlimit="10" stroke-linecap="round"/>
<path d="M16.2266 23.5469C16.1522 23.8083 16.0264 24.0522 15.8565 24.2643C15.6866 24.4764 15.476 24.6524 15.2371 24.7819C14.9982 24.9114 14.7358 24.9919 14.4653 25.0186C14.1949 25.0453 13.9218 25.0177 13.6622 24.9373C13.4008 24.863 13.1569 24.7372 12.9448 24.5673C12.7328 24.3973 12.5568 24.1867 12.4274 23.9478C12.2979 23.7089 12.2175 23.4465 12.1909 23.176C12.1643 22.9056 12.1921 22.6325 12.2726 22.373L14.421 15.1302C14.6579 14.3339 15.1457 13.6355 15.8118 13.1391C16.4778 12.6426 17.2865 12.3746 18.1172 12.375H26.8828C27.7136 12.3749 28.5222 12.6432 29.1881 13.14C29.854 13.6368 30.3416 14.3355 30.5781 15.1319L32.7266 22.3747C32.807 22.6342 32.8348 22.9073 32.8082 23.1777C32.7816 23.4482 32.7012 23.7106 32.5718 23.9495C32.4423 24.1884 32.2664 24.399 32.0543 24.569C31.8422 24.7389 31.5983 24.8648 31.3369 24.9391V24.9391C31.0775 25.0186 30.8049 25.0455 30.5349 25.0183C30.265 24.9911 30.0032 24.9103 29.7648 24.7807C29.5265 24.651 29.3164 24.4751 29.1469 24.2633C28.9774 24.0514 28.8519 23.8079 28.7777 23.5469" stroke="#616161" stroke-miterlimit="10" stroke-linecap="round"/>
<path d="M22.5 8.25C24.3985 8.25 25.9375 6.71098 25.9375 4.8125C25.9375 2.91402 24.3985 1.375 22.5 1.375C20.6015 1.375 19.0625 2.91402 19.0625 4.8125C19.0625 6.71098 20.6015 8.25 22.5 8.25Z" stroke="#616161" stroke-miterlimit="10" stroke-linecap="round"/>
<path d="M18.375 16.5L14.25 30.25H30.75L26.625 16.5" stroke="#616161" stroke-linecap="round" stroke-linejoin="round"/>
</svg>
