<svg width="143" height="30" viewBox="0 0 143 30" fill="none" xmlns="http://www.w3.org/2000/svg">
<g clip-path="url(#clip0_790_4260)">
<path d="M11.1306 2.99895C12.1588 0.517991 14.1121 0 18.0506 0H59.9737C56.2436 8.98868 52.57 18.0083 48.8431 27.0011C47.8149 29.4818 45.8616 30 41.923 30H0C3.73013 21.0113 7.40375 11.9917 11.1306 2.99895Z" fill="#E61E37"/>
<path d="M34.6262 14.683L36.7156 9.64645H22.4439L27.284 10.6264L27.7474 11.1963L26.3008 14.683H34.6262ZM44.8206 15.946C44.6206 16.2916 44.3503 16.5947 44.026 16.8369C43.7016 17.0791 43.3299 17.2555 42.9332 17.3555C42.1498 17.6638 41.313 17.8257 40.4671 17.8326H24.9941L16.2667 24.4361H11.542L19.3722 5.56377H45.5577C46.2792 5.54295 46.9936 5.70741 47.6279 6.04037C48.3372 6.41795 48.5781 6.88945 48.3455 7.4504L44.8206 15.946Z" fill="#FEFEFE"/>
<path d="M76.7762 11.4222C76.6633 11.6171 76.5108 11.7881 76.3277 11.9248C76.1447 12.0614 75.935 12.161 75.7112 12.2175C75.2691 12.3914 74.7969 12.4826 74.3196 12.4864H65.5884L64.0427 16.2129H57.998L62.4163 5.56349H77.1922C77.5993 5.55175 78.0023 5.64471 78.36 5.83285C78.7605 6.04543 78.8965 6.31173 78.765 6.62829L76.7762 11.4222ZM71.0236 10.7093L72.2026 7.86704H64.1476L66.8968 8.42359L67.1467 8.7312L66.3259 10.7093H66.346L66.3384 10.7276L66.3529 10.7093H71.0236ZM94.2657 16.2129H88.8889L86.0976 9.9994H90.1197L91.0043 7.86704H82.9286L85.678 8.42359L85.941 8.74746L85.1194 10.7276L85.1208 10.7258L82.8444 16.2129H76.8L81.218 5.56349H95.9939C96.4011 5.55179 96.8042 5.64474 97.162 5.83285C97.5622 6.04543 97.698 6.31173 97.5671 6.62829L95.8735 10.7093C95.7609 10.9051 95.6083 11.0768 95.4251 11.214C95.2418 11.3512 95.0316 11.4512 94.8073 11.5078C94.3653 11.6816 93.8932 11.7729 93.416 11.7767H92.2479L94.2657 16.2129ZM112.834 15.1479C112.721 15.343 112.568 15.5141 112.385 15.6508C112.202 15.7876 111.993 15.8872 111.769 15.9437C111.327 16.1177 110.854 16.2091 110.377 16.2129H97.6127C97.2091 16.2239 96.8098 16.131 96.4556 15.9437C96.0503 15.7249 95.9146 15.4587 96.0432 15.1479L99.578 6.62829C99.6929 6.43339 99.8469 6.26262 100.031 6.12602C100.215 5.98942 100.426 5.88975 100.65 5.83285C101.089 5.65953 101.557 5.56813 102.031 5.56349H114.795C115.203 5.55176 115.606 5.64471 115.964 5.83285C116.364 6.04543 116.5 6.31173 116.369 6.62829L112.834 15.1479ZM107.299 13.9091L109.806 7.86704H101.71L104.459 8.42359L104.722 8.74746L103.901 10.7276L103.945 10.6715L102.602 13.9091H107.299ZM135.612 5.56349L132.641 7.86704H120.534L123.283 8.42359L123.545 8.74659L123.026 9.9994H131.757L131.019 11.7767H122.288L120.448 16.2129H114.403L118.821 5.56349H135.612ZM138.582 16.2129H132.537L136.955 5.56349H143L138.582 16.2129Z" fill="#FEFEFE"/>
<path d="M95.0247 17.8244C95.276 17.2176 95.7548 17.0898 96.7192 17.0898H138.089C137.176 19.291 136.276 21.4997 135.364 23.7015C135.112 24.3092 134.633 24.4361 133.669 24.4361H92.2993C93.2125 22.2347 94.1129 20.0256 95.0247 17.8244Z" fill="#E61E37"/>
<path fill-rule="evenodd" clip-rule="evenodd" d="M108.461 19.4654L107.954 20.6873H105.946L105.94 20.6951L105.943 20.6873H105.935L106.288 19.8369L106.18 19.7045L104.998 19.4654H108.461H108.461ZM110.606 18.475H104.254L102.354 23.0534H104.953L105.618 21.4513H109.371C109.577 21.4497 109.78 21.4105 109.97 21.3358C110.066 21.3115 110.156 21.2686 110.235 21.2099C110.314 21.1511 110.379 21.0777 110.428 20.9939L111.283 18.9327C111.339 18.7967 111.281 18.6823 111.108 18.5908C110.955 18.5099 110.781 18.4699 110.606 18.475Z" fill="#FEFEFE"/>
<path fill-rule="evenodd" clip-rule="evenodd" d="M126.482 18.475H120.129L118.23 23.0534H120.829L121.807 20.6951L122.16 19.8438L122.047 19.7045L120.865 19.4654H124.337L123.956 20.3821H122.227L123.427 23.0534H125.739L124.871 21.1461H125.373C125.579 21.1445 125.782 21.1053 125.972 21.0306C126.068 21.0063 126.158 20.9633 126.237 20.9043C126.316 20.8453 126.382 20.7715 126.43 20.6873L127.158 18.9327C127.214 18.7967 127.156 18.6823 126.984 18.5908C126.83 18.5099 126.657 18.4699 126.482 18.475" fill="#FEFEFE"/>
<path fill-rule="evenodd" clip-rule="evenodd" d="M112.853 19.4654H116.334L115.256 22.0628H113.237L113.814 20.6711L113.795 20.6951L114.148 19.8438L114.035 19.7045L112.853 19.4654ZM112.991 18.475C112.787 18.477 112.586 18.5163 112.398 18.5908C112.301 18.6153 112.211 18.6581 112.131 18.7168C112.052 18.7755 111.986 18.8489 111.937 18.9327L110.417 22.5955C110.362 22.7291 110.42 22.8437 110.594 22.9377C110.746 23.0182 110.918 23.0581 111.092 23.0534H116.579C116.785 23.0518 116.988 23.0125 117.178 22.9377C117.274 22.9134 117.364 22.8706 117.443 22.8118C117.521 22.753 117.587 22.6794 117.635 22.5955L119.155 18.9327C119.212 18.7967 119.153 18.6823 118.981 18.5908C118.827 18.5099 118.654 18.47 118.479 18.475H112.991Z" fill="#FEFEFE"/>
<path fill-rule="evenodd" clip-rule="evenodd" d="M135.57 18.4751H127.821L127.411 19.4652H129.838L129.882 19.4307L128.38 23.0532H130.978C132.555 19.254 132.235 20.0229 132.31 19.8434L132.197 19.7047L131.015 19.4652H134.293L135.57 18.4751Z" fill="#FEFEFE"/>
<path fill-rule="evenodd" clip-rule="evenodd" d="M98.4465 18.4772C98.1012 18.4392 97.7525 18.5107 97.453 18.6808C97.1534 18.851 96.9193 19.1105 96.7859 19.4204L96.3108 20.517C96.0394 21.1436 96.3495 21.4644 97.2101 21.4599L99.4495 21.4488C99.5431 21.4484 99.595 21.4887 99.542 21.6191L99.4449 21.8556C99.4212 21.9189 99.3759 21.9726 99.3165 22.008C99.2571 22.0433 99.187 22.0581 99.1178 22.0501H95.6957L95.2795 23.0547L100.187 23.0485C100.534 23.0884 100.885 23.0173 101.187 22.846C101.488 22.6747 101.724 22.4128 101.856 22.1002L102.091 21.5356C102.353 20.9039 102.117 20.6795 101.259 20.6808C100.188 20.6826 99.2859 20.6871 98.2153 20.6871H98.2037L98.502 19.9685L98.5548 19.835L98.4492 19.7043L97.2673 19.4649H98.7192C100.021 19.4649 101.677 19.467 102.979 19.4648L103.373 18.471L98.4465 18.4772Z" fill="#FEFEFE"/>
</g>
<defs>
<clipPath id="clip0_790_4260">
<rect width="143" height="30" fill="white"/>
</clipPath>
</defs>
</svg>
