<svg width="50" height="26" viewBox="0 0 50 26" fill="none" xmlns="http://www.w3.org/2000/svg">
<path d="M9.34664 2.63636C10.2541 0.454545 11.8875 0 15.1543 0C26.7695 0 38.3848 0 50 0C46.9147 7.72727 43.8294 15.5455 40.7441 23.3636C39.9274 25.5455 38.294 26 34.9365 26C23.3212 26 11.6152 26 0 26C3.17604 18.1818 6.26134 10.3636 9.34664 2.63636Z" fill="#E61E37"/>
<path d="M28.9472 12.7274L30.6714 8.36372H25.3175H23.7748H18.7839L22.7766 9.18191L23.1396 9.63645L21.9599 12.7274H28.9472ZM37.3864 13.8183C37.2049 14.2728 36.6605 14.7274 35.8438 15.0001C35.1178 15.2728 34.4826 15.4546 33.7567 15.4546H20.871L13.6115 21.1819H9.70947L16.243 4.90918H38.0216C38.6568 4.90918 39.2921 5.00009 39.7458 5.36373C40.381 5.72736 40.5625 6.091 40.381 6.54554L37.3864 13.8183Z" fill="#FEFEFE"/>
</svg>
