<svg width="169" height="36" viewBox="0 0 169 36" fill="none" xmlns="http://www.w3.org/2000/svg">
<g clip-path="url(#clip0_285_19001)">
<path d="M13.1544 3.59874C14.3695 0.62159 16.678 0 21.3326 0H70.878C66.4697 10.7864 62.1281 21.61 57.7236 32.4013C56.5086 35.3781 54.2 36 49.5454 36H0C4.40834 25.2136 8.74988 14.39 13.1544 3.59874Z" fill="#E61E37"/>
<path d="M40.922 17.6193L43.3913 11.5755H26.5247L32.2449 12.7514L32.7925 13.4353L31.0829 17.6193H40.922ZM52.9699 19.135C52.7335 19.5497 52.4141 19.9134 52.0308 20.204C51.6475 20.4947 51.2082 20.7064 50.7393 20.8264C49.8135 21.1964 48.8246 21.3906 47.8249 21.3989H29.5386L19.2244 29.3231H13.6406L22.8945 6.6763H53.841C54.6937 6.65132 55.538 6.84868 56.2876 7.24823C57.1259 7.70132 57.4106 8.26713 57.1357 8.94026L52.9699 19.135Z" fill="#FEFEFE"/>
<path d="M90.7354 13.7068C90.6019 13.9407 90.4216 14.1459 90.2053 14.3099C89.989 14.4739 89.7412 14.5934 89.4767 14.6612C88.9542 14.8698 88.3962 14.9793 87.8321 14.9839H77.5134L75.6867 19.4556H68.543L73.7645 6.67636H91.2269C91.7081 6.66227 92.1844 6.77382 92.6071 6.99959C93.0804 7.25469 93.2411 7.57425 93.0858 7.95412L90.7354 13.7068ZM83.9368 12.8514L85.3301 9.44062H75.8107L79.0596 10.1085L79.355 10.4776L78.385 12.8514H78.4087L78.3997 12.8733L78.4169 12.8514H83.9368ZM111.405 19.4556H105.05L101.751 11.9995H106.505L107.55 9.44062H98.0063L101.256 10.1085L101.566 10.4971L100.595 12.8733L100.597 12.8711L97.9069 19.4556H90.7634L95.9847 6.67636H113.447C113.928 6.66231 114.405 6.77386 114.828 6.99959C115.301 7.25469 115.461 7.57425 115.306 7.95412L113.305 12.8514C113.172 13.0863 112.991 13.2923 112.775 13.457C112.558 13.6217 112.31 13.7416 112.045 13.8096C111.522 14.0181 110.964 14.1276 110.401 14.1322H109.02L111.405 19.4556ZM133.349 18.1777C133.215 18.4118 133.035 18.6171 132.819 18.7812C132.603 18.9453 132.355 19.0649 132.09 19.1327C131.568 19.3415 131.01 19.4511 130.445 19.4556H115.36C114.883 19.4688 114.411 19.3573 113.993 19.1327C113.514 18.8701 113.353 18.5506 113.505 18.1777L117.683 7.95412C117.819 7.72024 118.001 7.51532 118.218 7.3514C118.436 7.18748 118.685 7.06787 118.95 6.99959C119.468 6.79161 120.022 6.68193 120.582 6.67636H135.667C136.148 6.66228 136.625 6.77383 137.048 6.99959C137.521 7.25469 137.682 7.57425 137.526 7.95412L133.349 18.1777ZM126.808 16.6911L129.771 9.44062H120.202L123.451 10.1085L123.762 10.4971L122.791 12.8733L122.844 12.8059L121.257 16.6911H126.808ZM160.269 6.67636L156.758 9.44062H142.449L145.698 10.1085L146.008 10.4961L145.394 11.9995H155.712L154.841 14.1322H144.522L142.347 19.4556H135.204L140.425 6.67636H160.269ZM163.778 19.4556H156.635L161.856 6.67636H169L163.778 19.4556Z" fill="#FEFEFE"/>
<path d="M112.302 21.3893C112.599 20.6611 113.165 20.5078 114.305 20.5078H163.196C162.117 23.1492 161.054 25.7996 159.975 28.4418C159.678 29.1711 159.112 29.3233 157.973 29.3233H109.081C110.16 26.6817 111.224 24.0307 112.302 21.3893Z" fill="#E61E37"/>
<path fill-rule="evenodd" clip-rule="evenodd" d="M128.182 23.3584L127.583 24.8247H125.21L125.203 24.834L125.206 24.8247H125.196L125.613 23.8042L125.486 23.6453L124.089 23.3584H128.182H128.182ZM130.717 22.17H123.21L120.965 27.664H124.036L124.821 25.7415H129.258C129.5 25.7395 129.74 25.6925 129.965 25.6028C130.079 25.5737 130.185 25.5223 130.278 25.4518C130.371 25.3813 130.448 25.2931 130.506 25.1925L131.516 22.7192C131.583 22.556 131.514 22.4187 131.31 22.3089C131.129 22.2118 130.924 22.1638 130.717 22.17Z" fill="#FEFEFE"/>
<path fill-rule="evenodd" clip-rule="evenodd" d="M149.479 22.17H141.971L139.727 27.664H142.798L143.953 24.834L144.371 23.8125L144.237 23.6453L142.84 23.3584H146.944L146.494 24.4584H144.451L145.869 27.664H148.601L147.575 25.3752H148.169C148.411 25.3733 148.651 25.3262 148.876 25.2366C148.99 25.2074 149.097 25.1559 149.19 25.0851C149.283 25.0143 149.36 24.9257 149.417 24.8247L150.278 22.7192C150.345 22.5559 150.276 22.4186 150.072 22.3089C149.89 22.2118 149.686 22.1638 149.479 22.17" fill="#FEFEFE"/>
<path fill-rule="evenodd" clip-rule="evenodd" d="M133.372 23.3584H137.485L136.212 26.4753H133.825L134.507 24.8052L134.485 24.834L134.902 23.8125L134.768 23.6453L133.372 23.3584ZM133.535 22.17C133.294 22.1723 133.056 22.2194 132.833 22.3089C132.719 22.3382 132.612 22.3896 132.519 22.4601C132.425 22.5306 132.347 22.6186 132.289 22.7192L130.493 27.1145C130.427 27.2748 130.496 27.4124 130.702 27.5251C130.882 27.6217 131.085 27.6697 131.29 27.664H137.776C138.018 27.662 138.258 27.6149 138.483 27.5251C138.596 27.496 138.703 27.4446 138.796 27.374C138.889 27.3034 138.966 27.2152 139.024 27.1145L140.82 22.7192C140.886 22.5559 140.817 22.4186 140.614 22.3089C140.432 22.2118 140.227 22.1638 140.02 22.17H133.535Z" fill="#FEFEFE"/>
<path fill-rule="evenodd" clip-rule="evenodd" d="M160.219 22.1699H151.062L150.577 23.3581H153.445L153.498 23.3167L151.722 27.6637H154.792C156.656 23.1046 156.278 24.0272 156.366 23.8119L156.233 23.6455L154.836 23.3581H158.71L160.219 22.1699Z" fill="#FEFEFE"/>
<path fill-rule="evenodd" clip-rule="evenodd" d="M116.346 22.1728C115.938 22.1272 115.526 22.213 115.172 22.4172C114.818 22.6213 114.541 22.9328 114.384 23.3046L113.822 24.6205C113.502 25.3725 113.868 25.7574 114.885 25.7521L117.532 25.7388C117.642 25.7382 117.704 25.7865 117.641 25.9431L117.526 26.2268C117.498 26.3028 117.445 26.3673 117.374 26.4097C117.304 26.4521 117.221 26.4699 117.14 26.4602H113.095L112.604 27.6658L118.403 27.6584C118.813 27.7062 119.229 27.6209 119.585 27.4153C119.941 27.2098 120.219 26.8955 120.376 26.5204L120.653 25.8429C120.963 25.0849 120.685 24.8155 119.67 24.8171C118.405 24.8193 117.338 24.8247 116.073 24.8247H116.059L116.412 23.9623L116.474 23.8021L116.35 23.6453L114.953 23.358H116.669C118.208 23.358 120.164 23.3605 121.703 23.3579L122.168 22.1654L116.346 22.1728Z" fill="#FEFEFE"/>
</g>
<defs>
<clipPath id="clip0_285_19001">
<rect width="169" height="36" fill="white"/>
</clipPath>
</defs>
</svg>
