<svg width="169" height="36" viewBox="0 0 169 36" fill="none" xmlns="http://www.w3.org/2000/svg">
<g clip-path="url(#clip0_321_11549)">
<path d="M13.1544 3.59874C14.3695 0.62159 16.678 0 21.3326 0H70.878C66.4697 10.7864 62.1281 21.61 57.7236 32.4013C56.5086 35.3781 54.2 36 49.5454 36H0C4.40834 25.2136 8.74988 14.39 13.1544 3.59874Z" fill="#E61E37"/>
<path d="M40.922 17.6194L43.3913 11.5755H26.5247L32.2449 12.7514L32.7925 13.4353L31.0829 17.6194H40.922ZM52.9699 19.135C52.7335 19.5498 52.4141 19.9134 52.0308 20.2041C51.6475 20.4947 51.2082 20.7064 50.7393 20.8265C49.8135 21.1964 48.8246 21.3907 47.8249 21.3989H29.5386L19.2244 29.3231H13.6406L22.8945 6.67633H53.841C54.6937 6.65135 55.538 6.84871 56.2876 7.24826C57.1259 7.70135 57.4106 8.26716 57.1357 8.94029L52.9699 19.135Z" fill="#FEFEFE"/>
<path d="M90.7355 13.7067C90.602 13.9407 90.4218 14.1459 90.2055 14.3099C89.9892 14.4739 89.7413 14.5934 89.4768 14.6612C88.9544 14.8698 88.3963 14.9793 87.8322 14.9838H77.5136L75.6868 19.4556H68.5431L73.7647 6.67633H91.227C91.7082 6.66223 92.1845 6.77379 92.6073 6.99956C93.0805 7.25466 93.2412 7.57422 93.0859 7.95409L90.7355 13.7067ZM83.937 12.8513L85.3303 9.44059H75.8108L79.0598 10.1085L79.3551 10.4776L78.3851 12.8513H78.4089L78.3998 12.8733L78.417 12.8513H83.937ZM111.405 19.4556H105.05L101.752 11.9994H106.505L107.551 9.44059H98.0065L101.256 10.1085L101.567 10.4971L100.596 12.8733L100.597 12.8711L97.907 19.4556H90.7636L95.9849 6.67633H113.447C113.928 6.66228 114.405 6.77383 114.828 6.99956C115.301 7.25466 115.461 7.57422 115.306 7.95409L113.305 12.8513C113.172 13.0862 112.992 13.2922 112.775 13.4569C112.558 13.6216 112.31 13.7416 112.045 13.8095C111.523 14.0181 110.965 14.1276 110.401 14.1322H109.02L111.405 19.4556ZM133.349 18.1776C133.216 18.4118 133.035 18.617 132.819 18.7812C132.603 18.9453 132.355 19.0648 132.09 19.1326C131.568 19.3414 131.01 19.451 130.446 19.4556H115.36C114.883 19.4688 114.411 19.3573 113.993 19.1326C113.514 18.8701 113.354 18.5505 113.506 18.1776L117.683 7.95409C117.819 7.72021 118.001 7.51529 118.218 7.35137C118.436 7.18745 118.685 7.06784 118.951 6.99956C119.469 6.79158 120.022 6.6819 120.582 6.67633H135.667C136.148 6.66225 136.625 6.7738 137.048 6.99956C137.521 7.25466 137.682 7.57422 137.526 7.95409L133.349 18.1776ZM126.808 16.691L129.771 9.44059H120.202L123.451 10.1085L123.762 10.4971L122.792 12.8733L122.844 12.8059L121.257 16.691H126.808ZM160.269 6.67633L156.758 9.44059H142.449L145.698 10.1085L146.008 10.4961L145.394 11.9994H155.712L154.841 14.1322H144.522L142.347 19.4556H135.204L140.425 6.67633H160.269ZM163.778 19.4556H156.635L161.856 6.67633H169L163.778 19.4556Z" fill="#FEFEFE"/>
<path d="M112.302 21.3893C112.599 20.6612 113.165 20.5078 114.304 20.5078H163.196C162.117 23.1492 161.054 25.7996 159.975 28.4419C159.677 29.1711 159.112 29.3234 157.972 29.3234H109.081C110.16 26.6817 111.224 24.0307 112.302 21.3893Z" fill="#E61E37"/>
<path fill-rule="evenodd" clip-rule="evenodd" d="M128.182 23.3583L127.583 24.8247H125.21L125.202 24.834L125.206 24.8247H125.196L125.613 23.8042L125.486 23.6453L124.089 23.3583H128.182H128.182ZM130.717 22.1699H123.209L120.964 27.6639H124.036L124.821 25.7414H129.257C129.5 25.7394 129.74 25.6924 129.964 25.6028C130.078 25.5736 130.185 25.5222 130.278 25.4517C130.371 25.3812 130.448 25.293 130.505 25.1925L131.516 22.7191C131.583 22.5559 131.514 22.4186 131.31 22.3088C131.128 22.2117 130.924 22.1638 130.717 22.1699Z" fill="#FEFEFE"/>
<path fill-rule="evenodd" clip-rule="evenodd" d="M149.479 22.1699H141.971L139.726 27.664H142.798L143.953 24.834L144.371 23.8125L144.237 23.6453L142.84 23.3583H146.943L146.494 24.4584H144.451L145.869 27.664H148.601L147.575 25.3752H148.169C148.411 25.3732 148.651 25.3262 148.876 25.2366C148.99 25.2074 149.096 25.1558 149.19 25.085C149.283 25.0142 149.36 24.9257 149.417 24.8247L150.278 22.7191C150.345 22.5559 150.276 22.4186 150.072 22.3088C149.89 22.2118 149.685 22.1638 149.479 22.1699" fill="#FEFEFE"/>
<path fill-rule="evenodd" clip-rule="evenodd" d="M133.372 23.3583H137.485L136.212 26.4753H133.825L134.508 24.8052L134.485 24.834L134.902 23.8125L134.769 23.6453L133.372 23.3583ZM133.535 22.1699C133.294 22.1723 133.056 22.2194 132.834 22.3088C132.719 22.3382 132.612 22.3896 132.519 22.4601C132.425 22.5305 132.347 22.6186 132.289 22.7191L130.493 27.1145C130.427 27.2748 130.496 27.4123 130.702 27.5251C130.882 27.6217 131.085 27.6696 131.29 27.664H137.776C138.018 27.662 138.258 27.6149 138.483 27.5251C138.596 27.4959 138.703 27.4445 138.796 27.374C138.889 27.3034 138.966 27.2151 139.024 27.1145L140.82 22.7191C140.887 22.5559 140.817 22.4186 140.614 22.3088C140.432 22.2118 140.227 22.1638 140.02 22.1699H133.535Z" fill="#FEFEFE"/>
<path fill-rule="evenodd" clip-rule="evenodd" d="M160.219 22.1699H151.062L150.577 23.3581H153.444L153.497 23.3167L151.721 27.6637H154.792C156.655 23.1046 156.278 24.0272 156.366 23.8119L156.233 23.6455L154.836 23.3581H158.709L160.219 22.1699Z" fill="#FEFEFE"/>
<path fill-rule="evenodd" clip-rule="evenodd" d="M116.346 22.1728C115.938 22.1272 115.526 22.213 115.172 22.4172C114.818 22.6213 114.541 22.9328 114.383 23.3046L113.822 24.6205C113.501 25.3725 113.868 25.7574 114.885 25.7521L117.531 25.7388C117.642 25.7382 117.703 25.7865 117.641 25.9431L117.526 26.2268C117.498 26.3028 117.444 26.3673 117.374 26.4097C117.304 26.4521 117.221 26.4699 117.139 26.4602H113.095L112.603 27.6658L118.402 27.6584C118.813 27.7062 119.228 27.6209 119.585 27.4153C119.941 27.2098 120.219 26.8955 120.376 26.5204L120.653 25.8429C120.963 25.0849 120.684 24.8155 119.67 24.8171C118.404 24.8193 117.338 24.8247 116.073 24.8247H116.059L116.412 23.9623L116.474 23.8021L116.349 23.6453L114.952 23.358H116.668C118.207 23.358 120.164 23.3605 121.703 23.3579L122.168 22.1654L116.346 22.1728Z" fill="#FEFEFE"/>
</g>
<defs>
<clipPath id="clip0_321_11549">
<rect width="169" height="36" fill="white"/>
</clipPath>
</defs>
</svg>
