<svg width="174" height="26" viewBox="0 0 174 26" fill="none" xmlns="http://www.w3.org/2000/svg">
<g clip-path="url(#clip0_262_18985)">
<path d="M9.34664 2.63636C10.2541 0.454545 11.8875 0 15.1543 0C26.7695 0 38.3848 0 50 0C46.9147 7.72727 43.8294 15.5455 40.7441 23.3636C39.9274 25.5455 38.294 26 34.9365 26C23.3212 26 11.6152 26 0 26C3.17604 18.1818 6.26134 10.3636 9.34664 2.63636Z" fill="#E61E37"/>
<path d="M28.7757 12.6872L30.4585 8.39665H25.2331H23.7275H18.8565L22.7533 9.20112L23.1076 9.64805L21.9562 12.6872H28.7757ZM37.0123 13.7598C36.8351 14.2067 36.3037 14.6536 35.5067 14.9218C34.7981 15.1899 34.1782 15.3687 33.4697 15.3687H20.8935L13.8083 21H10L16.3767 5H37.6322C38.2522 5 38.8721 5.08939 39.3149 5.44693C39.9349 5.80447 40.112 6.16201 39.9349 6.60894L37.0123 13.7598Z" fill="#FEFEFE"/>
<path d="M75.8075 13.8398C75.6252 14.2818 75.0781 14.7238 74.2576 14.989C73.5282 15.2541 72.89 15.4309 72.1606 15.4309H59.2142L56.9349 21H48L54.5644 5.1768H76.4457C77.0839 5.1768 77.7221 5.26519 78.178 5.61878C78.8162 5.97238 78.9986 6.32597 78.8162 6.76796L75.8075 13.8398ZM67.2373 12.779L68.9696 8.53591H63.6816H62.0405H57.026L61.1288 9.33149L61.4935 9.77348L60.3082 12.779H67.2373ZM101.7 20.9116H93.7685L89.6657 11.6298H95.5919L96.8683 8.44751H91.4891H89.848H84.8336L88.9363 9.24309L89.301 9.68508L88.207 12.779L84.8336 20.9116H75.8987L82.4631 5.0884H104.344C104.983 5.0884 105.621 5.1768 106.077 5.53039C106.715 5.88398 106.897 6.23757 106.715 6.67956L104.162 12.779C103.98 13.221 103.433 13.663 102.612 13.9282C101.883 14.1934 101.245 14.3702 100.515 14.3702H98.7829L101.7 20.9116ZM129.326 19.3204C129.143 19.7624 128.596 20.2044 127.776 20.4696C127.046 20.7348 126.408 20.9116 125.679 20.9116H106.715C106.077 20.9116 105.438 20.8232 104.983 20.4696C104.344 20.116 104.162 19.7624 104.344 19.3204L109.541 6.59116C109.724 6.14917 110.271 5.70718 111.091 5.44199C111.821 5.1768 112.459 5 113.097 5H132.152C132.79 5 133.428 5.0884 133.884 5.44199C134.522 5.79558 134.705 6.14917 134.522 6.59116L129.326 19.3204ZM121.029 17.4641L124.767 8.44751H119.388H117.838H112.823L116.926 9.24309L117.291 9.68508L116.106 12.6022L116.197 12.5138L114.191 17.3757H121.029V17.4641ZM163.059 5.0884L158.683 8.53591H147.378H145.737H140.722L144.825 9.33149L145.19 9.77348L144.46 11.6298H157.407L156.313 14.2818H143.366L140.631 20.9116H131.696L138.26 5.0884H163.059ZM167.436 20.9116H158.501L165.065 5.0884H174L167.436 20.9116Z" fill="#FEFEFE"/>
</g>
<defs>
<clipPath id="clip0_262_18985">
<rect width="174" height="26" fill="white"/>
</clipPath>
</defs>
</svg>
