<svg width="50" height="26" viewBox="0 0 50 26" fill="none" xmlns="http://www.w3.org/2000/svg">
<path d="M9.34664 2.63636C10.2541 0.454545 11.8875 0 15.1543 0C26.7695 0 38.3848 0 50 0C46.9147 7.72727 43.8294 15.5455 40.7441 23.3636C39.9274 25.5455 38.294 26 34.9365 26C23.3212 26 11.6152 26 0 26C3.17604 18.1818 6.26134 10.3636 9.34664 2.63636Z" fill="#E61E37"/>
<path d="M28.9467 12.7269L30.6709 8.36324H25.317H23.7743H18.7834L22.7761 9.18142L23.1391 9.63596L21.9594 12.7269H28.9467ZM37.3859 13.8178C37.2044 14.2723 36.66 14.7269 35.8433 14.9996C35.1173 15.2723 34.4821 15.4541 33.7562 15.4541H20.8705L13.611 21.1814H9.70898L16.2426 4.90869H38.0211C38.6564 4.90869 39.2916 4.9996 39.7453 5.36324C40.3805 5.72687 40.562 6.09051 40.3805 6.54505L37.3859 13.8178Z" fill="#FEFEFE"/>
</svg>
