<svg width="143" height="23" viewBox="0 0 143 23" fill="none" xmlns="http://www.w3.org/2000/svg">
<g clip-path="url(#clip0_295_944)">
<path d="M7.60089 3.69519C8.34607 1.88535 9.68739 1.5083 12.37 1.5083C21.9083 1.5083 31.4466 1.5083 40.9849 1.5083C38.4513 7.91814 35.9177 14.4034 33.3841 20.8886C32.7134 22.6985 31.3721 23.0755 28.615 23.0755C19.0767 23.0755 9.46384 23.0755 -0.0744629 23.0755C2.53367 16.5903 5.06728 10.105 7.60089 3.69519Z" fill="#E61E37"/>
<path d="M23.6967 12.0658L25.1126 8.44614H20.716H19.4492H15.3507L18.6295 9.12483L18.9276 9.50188L17.9589 12.0658H23.6967ZM30.6269 12.9707C30.4779 13.3478 30.0308 13.7248 29.3601 13.9511C28.764 14.1773 28.2423 14.3281 27.6462 14.3281H17.0646L11.1032 19.0789H7.89893L13.2642 5.58057H31.1485C31.6702 5.58057 32.1918 5.65598 32.5644 5.95762C33.086 6.25925 33.235 6.56089 33.086 6.93794L30.6269 12.9707Z" fill="#FEFEFE"/>
<path d="M61.2539 12.9707C61.1048 13.3477 60.6577 13.7248 59.9871 13.951C59.3909 14.1772 58.8693 14.328 58.2731 14.328H47.6916L45.8286 19.0789H38.5259L43.8912 5.58051H61.7755C62.2971 5.58051 62.8187 5.65592 63.1913 5.95756C63.713 6.2592 63.862 6.56083 63.713 6.93788L61.2539 12.9707ZM54.2492 12.0658L55.665 8.44608H51.343H50.0016H45.9032L49.2565 9.12477L49.5545 9.50182L48.5858 12.0658H54.2492ZM82.417 19.0035H75.9339L72.5806 11.0854H77.4243L78.4675 8.37067H74.071H72.7296H68.6311L71.9845 9.04936L72.2825 9.42641L71.3883 12.0658L68.6311 19.0035H61.3284L66.6937 5.5051H84.578C85.0996 5.5051 85.6212 5.58051 85.9938 5.88215C86.5155 6.18379 86.6645 6.48543 86.5155 6.86247L84.429 12.0658C84.2799 12.4428 83.8328 12.8199 83.1621 13.0461C82.566 13.2723 82.0444 13.4231 81.4482 13.4231H80.0324L82.417 19.0035ZM104.996 17.6461C104.847 18.0231 104.4 18.4002 103.729 18.6264C103.133 18.8526 102.611 19.0035 102.015 19.0035H86.5155C85.9938 19.0035 85.4722 18.928 85.0996 18.6264C84.578 18.3248 84.429 18.0231 84.578 17.6461L88.8255 6.78706C88.9746 6.41002 89.4217 6.03297 90.0923 5.80674C90.6885 5.58051 91.2101 5.42969 91.7317 5.42969H107.306C107.828 5.42969 108.349 5.5051 108.722 5.80674C109.243 6.10838 109.392 6.41002 109.243 6.78706L104.996 17.6461ZM98.2148 16.0625L101.27 8.37067H96.8735H95.6067H91.5082L94.8615 9.04936L95.1595 9.42641L94.1908 11.9149L94.2653 11.8395L92.6259 15.9871H98.2148V16.0625ZM132.568 5.5051L128.991 8.44608H119.75H118.409H114.311L117.664 9.12477L117.962 9.50182L117.366 11.0854H127.947L127.053 13.3477H116.472L114.236 19.0035H106.933L112.299 5.5051H132.568ZM136.144 19.0035H128.842L134.207 5.5051H141.51L136.144 19.0035Z" fill="#FEFEFE"/>
</g>
<defs>
<clipPath id="clip0_295_944">
<rect width="143" height="23" fill="white"/>
</clipPath>
</defs>
</svg>
